<?xml version="1.0" encoding="UTF-8" standalone="no"?>
<!DOCTYPE svg PUBLIC "-//W3C//DTD SVG 1.1//EN" "http://www.w3.org/Graphics/SVG/1.1/DTD/svg11.dtd">
<!-- Generated by Microsoft Visio, SVG Export Drawing.svg Page-1 -->
<svg xmlns="http://www.w3.org/2000/svg" xmlns:xlink="http://www.w3.org/1999/xlink" xmlns:ev="http://www.w3.org/2001/xml-events"
		xmlns:v="http://schemas.microsoft.com/visio/2003/SVGExtensions/" width="11in" height="8.5in" viewBox="0 0 792 612"
		xml:space="preserve" color-interpolation-filters="sRGB" class="st8">
	<v:documentProperties v:langID="1033" v:viewMarkup="false">
		<v:userDefs>
			<v:ud v:nameU="msvSubprocessMaster" v:prompt="" v:val="VT4(Box)"/>
			<v:ud v:nameU="msvNoAutoConnect" v:val="VT0(1):26"/>
		</v:userDefs>
	</v:documentProperties>

	<style type="text/css">
	<![CDATA[
		.st1 {fill:#5b9bd5;stroke:#ffffff;stroke-linecap:round;stroke-linejoin:round;stroke-width:0.5}
		.st2 {fill:#ffffff;font-family:Calibri;font-size:1.5em;font-weight:bold}
		.st3 {marker-end:url(#mrkr4-12);stroke:#5692c9;stroke-linecap:round;stroke-linejoin:round;stroke-width:6}
		.st4 {fill:#5692c9;fill-opacity:1;stroke:#5692c9;stroke-opacity:1;stroke-width:0.70422535211268}
		.st5 {font-size:1em}
		.st6 {marker-end:url(#mrkr13-33);marker-start:url(#mrkr13-31);stroke:#5692c9;stroke-linecap:round;stroke-linejoin:round;stroke-width:6}
		.st7 {fill:#ffffff;font-family:Calibri;font-size:1.16666em;font-weight:bold}
		.st8 {fill:none;fill-rule:evenodd;font-size:12px;overflow:visible;stroke-linecap:square;stroke-miterlimit:3}
	]]>
	</style>

	<defs id="Markers">
		<g id="lend4">
			<path d="M 2 1 L 0 0 L 2 -1 L 2 1 " style="stroke:none"/>
		</g>
		<marker id="mrkr4-12" class="st4" v:arrowType="4" v:arrowSize="2" v:setback="2.84" refX="-2.84" orient="auto"
				markerUnits="strokeWidth" overflow="visible">
			<use xlink:href="#lend4" transform="scale(-1.42,-1.42) "/>
		</marker>
		<g id="lend13">
			<path d="M 3 1 L 0 0 L 3 -1 L 3 1 " style="stroke:none"/>
		</g>
		<marker id="mrkr13-31" class="st4" v:arrowType="13" v:arrowSize="2" v:setback="4.2" refX="4.2" orient="auto"
				markerUnits="strokeWidth" overflow="visible">
			<use xlink:href="#lend13" transform="scale(1.42) "/>
		</marker>
		<marker id="mrkr13-33" class="st4" v:arrowType="13" v:arrowSize="2" v:setback="4.26" refX="-4.26" orient="auto"
				markerUnits="strokeWidth" overflow="visible">
			<use xlink:href="#lend13" transform="scale(-1.42,-1.42) "/>
		</marker>
	</defs>
	<g v:mID="0" v:index="1" v:groupContext="foregroundPage">
		<v:userDefs>
			<v:ud v:nameU="msvThemeOrder" v:val="VT0(0):26"/>
		</v:userDefs>
		<title>Page-1</title>
		<v:pageProperties v:drawingScale="1" v:pageScale="1" v:drawingUnits="0" v:shadowOffsetX="9" v:shadowOffsetY="-9"/>
		<v:layer v:name="Connector" v:index="0"/>
		<g id="shape16-1" v:mID="16" v:groupContext="shape" transform="translate(375.882,-368.206)">
			<title>Circle</title>
			<desc>Dave</desc>
			<v:userDefs>
				<v:ud v:nameU="visVersion" v:val="VT0(15):26"/>
			</v:userDefs>
			<v:textBlock v:margins="rect(4,4,4,4)"/>
			<v:textRect cx="36" cy="576" width="72" height="72"/>
			<path d="M0 576 A36 36 0 0 1 72 576 A36 36 0 1 1 0 576 Z" class="st1"/>
			<text x="17.09" y="581.4" class="st2" v:langID="1033"><v:paragraph v:horizAlign="1"/><v:tabList/>Dave</text>		</g>
		<g id="shape17-4" v:mID="17" v:groupContext="shape" transform="translate(193.765,-368.206)">
			<title>Circle.2</title>
			<desc>UI</desc>
			<v:userDefs>
				<v:ud v:nameU="visVersion" v:val="VT0(15):26"/>
			</v:userDefs>
			<v:textBlock v:margins="rect(4,4,4,4)"/>
			<v:textRect cx="36" cy="576" width="72" height="72"/>
			<path d="M0 576 A36 36 0 0 1 72 576 A36 36 0 1 1 0 576 Z" class="st1"/>
			<text x="27.73" y="581.4" class="st2" v:langID="1033"><v:paragraph v:horizAlign="1"/><v:tabList/>UI</text>		</g>
		<g id="shape18-7" v:mID="18" v:groupContext="shape" v:layerMember="0" transform="translate(265.765,-395.206)">
			<title>Dynamic connector</title>
			<path d="M0 603 L93.08 603" class="st3"/>
		</g>
		<g id="shape19-13" v:mID="19" v:groupContext="shape" transform="translate(375.882,-522)">
			<title>Circle.7</title>
			<desc>PDF Writer</desc>
			<v:userDefs>
				<v:ud v:nameU="visVersion" v:val="VT0(15):26"/>
			</v:userDefs>
			<v:textBlock v:margins="rect(4,4,4,4)"/>
			<v:textRect cx="36" cy="576" width="72" height="72"/>
			<path d="M0 576 A36 36 0 0 1 72 576 A36 36 0 1 1 0 576 Z" class="st1"/>
			<text x="21.41" y="570.6" class="st2" v:langID="1033"><v:paragraph v:horizAlign="1"/><v:tabList/>PDF<v:lf/><tspan
						x="11.58" dy="1.2em" class="st5">Writer</tspan></text>		</g>
		<g id="shape20-17" v:mID="20" v:groupContext="shape" v:layerMember="0" transform="translate(402.882,-440.206)">
			<title>Dynamic connector.8</title>
			<path d="M9 612 L9 547.25" class="st3"/>
		</g>
		<g id="shape21-22" v:mID="21" v:groupContext="shape" transform="translate(375.882,-207.794)">
			<title>Circle.9</title>
			<desc>Director</desc>
			<v:userDefs>
				<v:ud v:nameU="visVersion" v:val="VT0(15):26"/>
			</v:userDefs>
			<v:textBlock v:margins="rect(4,4,4,4)"/>
			<v:textRect cx="36" cy="576" width="72" height="72"/>
			<path d="M0 576 A36 36 0 0 1 72 576 A36 36 0 1 1 0 576 Z" class="st1"/>
			<text x="5.46" y="581.4" class="st2" v:langID="1033"><v:paragraph v:horizAlign="1"/><v:tabList/>Director</text>		</g>
		<g id="shape22-25" v:mID="22" v:groupContext="shape" v:layerMember="0" transform="translate(402.882,-368.206)">
			<title>Dynamic connector.13</title>
			<path d="M9 637.2 L9 637.56 L9 674.85" class="st6"/>
		</g>
		<g id="shape23-34" v:mID="23" v:groupContext="shape" transform="translate(193.765,-207.794)">
			<title>Circle.14</title>
			<desc>Parser</desc>
			<v:userDefs>
				<v:ud v:nameU="visVersion" v:val="VT0(15):26"/>
			</v:userDefs>
			<v:textBlock v:margins="rect(4,4,4,4)"/>
			<v:textRect cx="36" cy="576" width="72" height="72"/>
			<path d="M0 576 A36 36 0 0 1 72 576 A36 36 0 1 1 0 576 Z" class="st1"/>
			<text x="12.25" y="581.4" class="st2" v:langID="1033"><v:paragraph v:horizAlign="1"/><v:tabList/>Parser</text>		</g>
		<g id="shape24-37" v:mID="24" v:groupContext="shape" transform="translate(45,-207.794)">
			<title>Circle.15</title>
			<desc>Web Scraper</desc>
			<v:userDefs>
				<v:ud v:nameU="visVersion" v:val="VT0(15):26"/>
			</v:userDefs>
			<v:textBlock v:margins="rect(4,4,4,4)"/>
			<v:textRect cx="36" cy="576" width="72" height="72"/>
			<path d="M0 576 A36 36 0 0 1 72 576 A36 36 0 1 1 0 576 Z" class="st1"/>
			<text x="18.48" y="570.6" class="st2" v:langID="1033"><v:paragraph v:horizAlign="1"/><v:tabList/>Web<v:lf/><tspan
						x="7.78" dy="1.2em" class="st5">Scraper</tspan></text>		</g>
		<g id="shape25-41" v:mID="25" v:groupContext="shape" v:layerMember="0" transform="translate(117,-234.794)">
			<title>Dynamic connector.25</title>
			<path d="M0 603 L59.72 603" class="st3"/>
		</g>
		<g id="shape26-46" v:mID="26" v:groupContext="shape" v:layerMember="0" transform="translate(265.765,-234.794)">
			<title>Dynamic connector.26</title>
			<path d="M0 603 L93.08 603" class="st3"/>
		</g>
		<g id="shape28-51" v:mID="28" v:groupContext="shape" v:layerMember="0" transform="translate(447.882,-234.794)">
			<title>Dynamic connector.28</title>
			<path d="M25.2 603 L25.56 603 L84.56 603" class="st6"/>
		</g>
		<g id="shape27-58" v:mID="27" v:groupContext="shape" transform="translate(558,-207.794)">
			<title>Circle.27</title>
			<desc>Generator</desc>
			<v:userDefs>
				<v:ud v:nameU="visVersion" v:val="VT0(15):26"/>
			</v:userDefs>
			<v:textBlock v:margins="rect(4,4,4,4)"/>
			<v:textRect cx="36" cy="576" width="72" height="72"/>
			<path d="M0 576 A36 36 0 0 1 72 576 A36 36 0 1 1 0 576 Z" class="st1"/>
			<text x="6.11" y="580.2" class="st7" v:langID="1033"><v:paragraph v:horizAlign="1"/><v:tabList/>Generator</text>		</g>
		<g id="shape33-61" v:mID="33" v:groupContext="shape" v:layerMember="0" transform="translate(447.882,-404.206)">
			<title>Dynamic connector.33</title>
			<path d="M25.2 612 L25.56 612 L146.12 612 L146.12 710.85" class="st6"/>
		</g>
	</g>
</svg>
